<?xml version="1.0" encoding="utf-8"?>
<!-- Generator: Adobe Illustrator 19.0.0, SVG Export Plug-In . SVG Version: 6.00 Build 0)  -->
<svg version="1.1" id="Layer_1" xmlns="http://www.w3.org/2000/svg" xmlns:xlink="http://www.w3.org/1999/xlink" x="0px" y="0px"
	 viewBox="-629 386 20 30" style="enable-background:new -629 386 20 30;" xml:space="preserve">
<style type="text/css">
	.st0{fill:#EACFAF;}
	.st1{fill:#D59E5D;}
	.st2{fill:#CCCCCC;}
</style>
<polygon class="st0" points="-627.7,415.2 -627.7,403.5 -625.2,401.7 -622.7,403 -621.5,403.3 -619.2,401.9 -616.6,403 
	-616.1,403.7 -613,401.6 -610.2,403.2 -610,414.9 "/>
<path d="M-619,392l-10,10v14h20v-14L-619,392z M-623,414h-4v-9.1c0-1.1,0.9-2,2-2s2,0.9,2,2V414z M-617,414h-4v-9.1c0-1.1,0.9-2,2-2
	s2,0.9,2,2V414z M-611,414h-4v-9.1c0-1.1,0.9-2,2-2s2,0.9,2,2V414z M-613,400.9c-1.2,0-2.3,0.5-3,1.4c-0.7-0.8-1.8-1.4-3-1.4
	s-2.3,0.5-3,1.4c-0.7-0.8-1.8-1.4-3-1.4h-0.1l3.4-3.4h5.4l3.4,3.5L-613,400.9z"/>
<path class="st1" d="M-613,400.9c-1.2,0-2.3,0.5-3,1.4c-0.7-0.8-1.8-1.4-3-1.4s-2.3,0.5-3,1.4c-0.7-0.8-1.8-1.4-3-1.4h-0.1l3.4-3.4
	h5.4l3.4,3.5L-613,400.9z"/>
<g id="Layer_1_1_">
	<g>
		<path class="st0" d="M-664.4,386.6c-2.1-0.5-4-0.2-5.5,0.3s-2.2,1.2-3,1.8c-5.1-4-11.9-2.9-15.1,0c-3.7-2.9-7-2.5-8.6-2.2
			l10.3-10.5h11.9L-664.4,386.6z"/>
		<path class="st2" d="M-686.1,391v38.7h11V391C-680.4,387.7-684.6,389.7-686.1,391z"/>
		<path class="st2" d="M-699.7,389.8v41.7h10v-42.1C-692.3,387.2-695.4,386.3-699.7,389.8z"/>
		<path class="st2" d="M-671.8,390.4v40h10v-39.6C-665.8,387.5-668.7,388.3-671.8,390.4z"/>
		<path d="M-680.6,364.4l-22,23.3v44.7h44v-44.7L-680.6,364.4z M-690.3,428.7h-8.7v-36.4c3.7-3,6.4-2.3,8.7-0.3
			C-690.3,392-690.3,428.7-690.3,428.7z M-675.4,428.7h-10.4V392c1.4-1.2,5.4-3.1,10.4,0C-675.4,392-675.4,428.7-675.4,428.7z
			 M-688,388.7c-3.7-2.9-7-2.5-8.6-2.2l10.3-10.5h11.9l10.1,10.6c-2.1-0.5-4-0.2-5.5,0.3s-2.2,1.2-3,1.8
			C-678,384.7-684.9,385.9-688,388.7z M-662.2,428.7h-9.2V392c2.8-1.9,5.4-2.7,9.2,0.3V428.7z"/>
	</g>
</g>
<g id="Layer_1_2_">
	<g>
		<path class="st0" d="M-709.9,375.2c-2.1-0.5-4-0.2-5.5,0.3s-2.2,1.2-3,1.8c-5.1-4-11.9-2.9-15.1,0c-3.7-2.9-7-2.5-8.6-2.2
			l10.3-10.5h11.9L-709.9,375.2z"/>
		<path class="st0" d="M-731.6,379.6v38.7h11v-38.7C-725.9,376.3-730.1,378.3-731.6,379.6z"/>
		<path class="st0" d="M-745.2,378.4v41.7h10V378C-737.8,375.8-740.9,374.9-745.2,378.4z"/>
		<path class="st0" d="M-717.3,379v40h10v-39.6C-711.3,376.1-714.2,376.9-717.3,379z"/>
		<path d="M-726.1,353l-22,23.3V421h44v-44.7L-726.1,353z M-735.8,417.3h-8.7v-36.4c3.7-3,6.4-2.3,8.7-0.3
			C-735.8,380.6-735.8,417.3-735.8,417.3z M-720.9,417.3h-10.4v-36.7c1.4-1.2,5.4-3.1,10.4,0C-720.9,380.6-720.9,417.3-720.9,417.3z
			 M-733.5,377.3c-3.7-2.9-7-2.5-8.6-2.2l10.3-10.5h11.9l10.1,10.6c-2.1-0.5-4-0.2-5.5,0.3s-2.2,1.2-3,1.8
			C-723.5,373.3-730.4,374.5-733.5,377.3z M-707.7,417.3h-9.2v-36.7c2.8-1.9,5.4-2.7,9.2,0.3V417.3z"/>
	</g>
</g>
</svg>
